<svg xmlns="http://www.w3.org/2000/svg" xmlns:xlink="http://www.w3.org/1999/xlink" viewBox="0 0 400 300" width="406" height="306" class="illustration styles_illustrationTablet__1DWOa"><defs><linearGradient id="linear-gradient" x1="325.64" y1="187.91" x2="293.73" y2="210.93" gradientUnits="userSpaceOnUse"><stop offset="0" stop-color="#d4a397"></stop><stop offset="1" stop-color="#fff"></stop></linearGradient><linearGradient id="linear-gradient-2" x1="219.28" y1="196.14" x2="165.35" y2="235.06" xlink:href="#linear-gradient"></linearGradient></defs><title>PP</title><g style="isolation: isolate;"><g id="Layer_2" data-name="Layer 2"><path d="M194.28,289.32,14.56,183.1c-5.72-3.21-10.63-8.49-5.05-11.94l180.37-104c2.71-1.68,6.82-2.78,9.57-1.18L388.11,175.52c5.72,3.32,6.75,12.6,1,15.93L218,289.15A23.9,23.9,0,0,1,194.28,289.32Z" fill="#55823d"></path><polyline points="345.79 190.57 297.83 218.15 278.13 204.98 333.77 172.4" fill="url(#linear-gradient)" style="mix-blend-mode: multiply;"></polyline><polyline points="250.59 194.25 161.84 242.38 142.95 230.51 202.69 197.87" fill="url(#linear-gradient-2)" style="mix-blend-mode: multiply;"></polyline><path d="M50.67,133.64l67.76-38.86a5.17,5.17,0,0,1,7.73,4.48v27.86a5.17,5.17,0,0,1-2.59,4.48L55.82,170.65a5.17,5.17,0,0,1-7.74-4.48V138.12A5.17,5.17,0,0,1,50.67,133.64Z" fill="#68e1fd"></path><ellipse cx="64.7" cy="143.42" rx="12.08" ry="8.16" transform="translate(-91.3 163.93) rotate(-73.21)" fill="#fff"></ellipse><path d="M79.5,131.49l34.73-19.92a1.5,1.5,0,0,0-1.51-2.59L78,128.9a1.5,1.5,0,0,0,1.51,2.59Z" fill="#0071bc"></path><path d="M79.5,139.09l34.73-19.92a1.5,1.5,0,0,0-1.51-2.59L78,136.5a1.5,1.5,0,0,0,1.51,2.59Z" fill="#0071bc"></path><path d="M79.5,147.28l34.73-19.92a1.5,1.5,0,0,0-1.51-2.59L78,144.69a1.5,1.5,0,0,0,1.51,2.59Z" fill="#0071bc"></path><ellipse cx="64.74" cy="140.52" rx="5.73" ry="3.87" transform="translate(-88.49 161.91) rotate(-73.21)" fill="#0071bc"></ellipse><path d="M71.13,149.64c.11-.19-1.22-5.93-4.77-5.65-5.91.47-7.51,6.06-7.19,9.79a6.07,6.07,0,0,0,6.69.94A11.52,11.52,0,0,0,71.13,149.64Z" fill="#0071bc"></path><path d="M135.26,85.64v33.27a1.91,1.91,0,0,0,2.87,1.66l44.71-25.76V59.89Z" fill="#ffb3a6"></path><path d="M135.26,85.64s26,4.28,28.9,3.4,18.68-29.16,18.68-29.16Z" fill="#6de2fc"></path><path d="M135.26,85.64s26,4.28,28.9,3.4,18.68-29.16,18.68-29.16Z" fill="#124577" opacity="0.82"></path><path d="M30.55,93v40a2.3,2.3,0,0,0,3.44,2L87.7,104V62.06Z" fill="#ffb3a6"></path><path d="M30.55,93s31.25,5.14,34.71,4.09,22.44-35,22.44-35Z" fill="#6de2fc"></path><path d="M30.55,93s31.25,5.14,34.71,4.09,22.44-35,22.44-35Z" fill="#124577" opacity="0.82"></path><path d="M101.62,53.38l66-37.82a6.07,6.07,0,0,1,9.09,5.26V46.6a6.07,6.07,0,0,1-3,5.26l-66,38a6.07,6.07,0,0,1-9.1-5.26v-26A6.07,6.07,0,0,1,101.62,53.38Z" fill="#68e1fd"></path><ellipse cx="117.22" cy="65.16" rx="12.08" ry="8.16" transform="translate(20.98 158.56) rotate(-73.21)" fill="#fff"></ellipse><path d="M132.58,50.37l34.73-19.92a1.5,1.5,0,0,0-1.51-2.59L131.07,47.78a1.5,1.5,0,0,0,1.51,2.59Z" fill="#0071bc"></path><path d="M132.58,58l34.73-19.92a1.5,1.5,0,0,0-1.51-2.59L131.07,55.39A1.5,1.5,0,0,0,132.58,58Z" fill="#0071bc"></path><path d="M132.58,66.16l34.73-19.92a1.5,1.5,0,0,0-1.51-2.59L131.07,63.57a1.5,1.5,0,0,0,1.51,2.59Z" fill="#0071bc"></path><ellipse cx="117.04" cy="62.15" rx="5.73" ry="3.87" transform="translate(23.74 156.25) rotate(-73.21)" fill="#0071bc"></ellipse><path d="M123.43,71.27c.11-.19-1.22-5.93-4.77-5.65-5.91.47-7.51,6.06-7.19,9.79a6.07,6.07,0,0,0,6.69.94A11.52,11.52,0,0,0,123.43,71.27Z" fill="#0071bc"></path><ellipse cx="99.42" cy="56.24" rx="7.05" ry="5.4" transform="translate(16.86 135.19) rotate(-73.21)" fill="#eb4956"></ellipse><path d="M188,71.29c-2.41-1.29-3.68-3.76-5.89-5.27l-.14-.11-.18-.06A1.49,1.49,0,0,0,180.17,68a6.14,6.14,0,0,0,2.67,2.57,1.36,1.36,0,0,0,.87.66,29.42,29.42,0,0,1,4,1.36,1.52,1.52,0,0,0,2-.53,1.6,1.6,0,0,0,.15-1.13A1.4,1.4,0,0,1,188,71.29Z" fill="#ffc4b0"></path><path d="M188.16,75.64l0,0c-.86-2-1.61-4.07-2.41-6.1-.51-.52-1-1.07-1.5-1.6a1.4,1.4,0,0,0-.34,0,1.37,1.37,0,0,0-1.29,1.8l.18.48a1.53,1.53,0,0,0,.05,1.16q.92,2,1.86,3.93a7.42,7.42,0,0,0,.88,1.83l.38.79c.83,1.71,3.37.21,2.55-1.49Z" fill="#ffc4b0"></path><path d="M205.51,47.48l-.26.41A17.53,17.53,0,0,1,204,50.08q-.7,2.63-1.45,5.25c-1,3.4-.92,7.3-2.84,10.38-2.31,3.71-7.34,3.09-10.86,1.7-.91-.36-1.85-.82-2.8-1.29h0c-.36,5-.45,10.35,1.52,15a35.37,35.37,0,0,0,13,2c5.1-.18,12-1.73,13.95-7.14Z" fill="#ffb3a6"></path><path d="M205,56.9c-.85,6.77,0,14-2.82,20.36a22.48,22.48,0,0,1-3.63,5.6l-.25.28c6-.13,8.34-1,8.34-1l-1-29.82c-.19.54-.57,1.79-1.07,3.51A1.14,1.14,0,0,1,205,56.9Z" fill="#42210b"></path><polygon points="170.46 66.89 180.14 80.57 187.23 81.09 177.6 66.56 170.46 66.89" fill="#2d2d2d"></polygon><polygon points="173.22 64.39 179.92 65.1 190.45 79.8 187.23 81.09 178.66 69.19 170.46 66.89 173.22 64.39" fill="#606060"></polygon><path d="M180.51,77H180a1.49,1.49,0,0,0-1.14-2.4h-1.17a1.52,1.52,0,0,0,.24-1.81c-.63-1-3.2-1.06-3.77,0a1.49,1.49,0,0,0,.53,2l.35.15a1.5,1.5,0,0,0,1,2.58h.21a1.46,1.46,0,0,0,1.2,2.31,20.68,20.68,0,0,0,3.05.08A1.51,1.51,0,0,0,182,78.43,1.49,1.49,0,0,0,180.51,77Z" fill="#ffc4b0"></path><path d="M196.95,185.38c.45,3.89.91,7.82.33,11.71-.13.84-.24,1.75-.41,2.67l9.91-1.67V185.38Z" fill="#ffc4b0"></path><path d="M197,192c-.63,3.5-2.52,8.43-4.34,10.13-2.27,2.11-15.06,8.89-9.72,12.48,4,2.66,25.26-8,25.81-10.87.4-2.09-.73-8.61-1.37-12C204.33,193.66,200.39,193.33,197,192Z" fill="#42210b"></path><path d="M209.9,185.88c.61-11.27,2.24-31.94,2.48-33,.34-1.44,5.89-23,5.89-23-1.56-7.24-2.91-14.53-3.85-21.87-1.7-.14,2.11-19.8.45-20.14-3.44-.72-6.62-5.48-9.82-7-3.27,18.52-13.87,73-16.31,102.14C191.11,188.18,202.21,189,209.9,185.88Z" fill="#06577a"></path><path d="M242,168.77c2.5,2.76,5.28,9.11,7,12.3.38.69.8,1.42,1.18,2.18l6.46-5.3-6.49-14.5Z" fill="#ffc4b0"></path><path d="M254.46,172.49c-1.82,2.66-4.76,4.33-7.69,3.83.29,2.2,1.23,6.38.25,7.88-1.45,2.21-11.86,11.31-6.38,13.54,4.07,1.65,18.52-11.1,18.3-13.68C258.78,182.23,255.72,175.36,254.46,172.49Z" fill="#42210b"></path><path d="M237.51,177a.49.49,0,0,0,.59.18,46.13,46.13,0,0,0,9.62-5.12c3-2.33,4.32-4.85,6.73-8L253.21,162c-5.67-11.46-16.88-49.82-17.42-52.46-.64-3.12-3.23-31.07-3.23-31.07L207,73.82s.89,24.4,2.91,46.07a104,104,0,0,0,3.55,11.2c5.72,15.11,13.07,33.13,24.08,45.92Z" fill="#06577a"></path><path d="M233.39,85.92c-.23-14.23-1.45-26-3.61-30.71-2.42-5.25-11.22-9.31-14.7-10.74-1,0-2.13.08-3.19.21l-1.33.26-1,.17a12.67,12.67,0,0,0-1.42.46q-1,.54-1.92,1.16a.58.58,0,0,1-.35.09,7.58,7.58,0,0,0-1.47,1.49.72.72,0,0,1-.15.15,17.8,17.8,0,0,0-.56,4.17,122,122,0,0,0,.21,12.2c.31,5.38.81,10.74,1.13,16.12l.56,2.58c3.78,3,9.46,4.6,12.93,5.25C224.24,88.12,228.15,88.2,233.39,85.92Z" fill="#ffb3a6"></path><path d="M210.68,48.52a5.84,5.84,0,0,0,2.6,1.22c3,.64,5.37-2.33,6.91-4.49a21.08,21.08,0,0,0,3.89-8.51,4.78,4.78,0,0,0,0-1.53c-.62-3.69-12.83-8.26-14.61-1.43C208.46,37.82,207,45.4,210.68,48.52Z" fill="#ffc4b0"></path><path d="M222,40.28a3.11,3.11,0,0,0-2.49.54,4,4,0,0,0-1.6,2.17.84.84,0,0,0,.29,1,1.1,1.1,0,0,0,1.5.57,8.84,8.84,0,0,0,2.51-1.7C222.91,42.12,223.21,40.7,222,40.28Z" fill="#ffc4b0"></path><path d="M228,32.48a5.36,5.36,0,0,0-1.81-4.07,5.9,5.9,0,0,0-4.73-1.46,5.33,5.33,0,0,0-2.36-2.67,5.45,5.45,0,0,0-6.09.86,8.06,8.06,0,0,0-5.3.4A6.34,6.34,0,0,0,204.31,30a3.89,3.89,0,0,0-.12.85,4.79,4.79,0,0,0-.17,1.5c.12,3.54,3,4.83,4.76,5.3,0-1.9.83-5.45,2.85-4.17a.84.84,0,0,1,.34.14c1.25.85-.16,2.55,1.77,3.1S217,36,218.51,38s-2.71,3.39,1,7.26a6.83,6.83,0,0,0,0,.71c0-.28,1.93-1.54,2.21-1.78.79-.68,1.57-1.39,2.3-2.14a16.12,16.12,0,0,0,3.3-4.17A11.56,11.56,0,0,0,228,32.48Z" fill="#333"></path><path d="M221.24,42.67c.38-1.19-.46-2-1.52-1.67a5.08,5.08,0,0,0-3.07,3.74,1.17,1.17,0,0,0,.2,1A1.12,1.12,0,0,0,217,46a1.14,1.14,0,0,0,1.7.17A6.62,6.62,0,0,0,221.24,42.67Z" fill="#ffc4b0"></path><path d="M210.72,39.33c-.38-.14-3.91-2.07-3.91-2.07s-.71,3.69,1.13,4.85S210.72,39.33,210.72,39.33Z" fill="none" stroke="#333" stroke-miterlimit="10" stroke-width="0.75"></path><path d="M212.59,40.25l4.14,2.17s-.62,3.69-3.34,2.64S212.59,40.25,212.59,40.25Z" fill="none" stroke="#333" stroke-miterlimit="10" stroke-width="0.75"></path><path d="M219,40.73l-2.35,1.5c-.3.19,0,.62.33.43l2.35-1.5C219.67,41,219.34,40.54,219,40.73Z" fill="#333"></path><path d="M210.33,44.57c-.34-.08-.81-.26-.74-.67a2.59,2.59,0,0,1,.41-.68c.27-.43.57-.84.88-1.25a.27.27,0,0,0-.43-.33c-.31.41-.6.82-.88,1.25A3.14,3.14,0,0,0,209,44c-.08.64.77,1,1.27,1.15C210.6,45.19,210.67,44.65,210.33,44.57Z" fill="#333"></path><path d="M212.79,40.05a19.51,19.51,0,0,1-2.2-1c-.31-.16-.52.34-.21.5a19.51,19.51,0,0,0,2.2,1C212.91,40.68,213.12,40.18,212.79,40.05Z" fill="#333"></path><path d="M216.16,138.14s-4.28-15.05-6.67-22.75L211.63,161S214.05,144.07,216.16,138.14Z" fill="#42210b"></path><path d="M185.79,44.19s20.33-.14,21.59.53,1.66,2.84,1,5.81-11,14.46-11,14.46" fill="#3bd2e2"></path><path d="M179.48,50.35c.07-.21,2.67-9.51,11.8-5,8.25,4.1,7.9,14.9,7.18,17.5-.59,2.12-2.94,4.92-7.24,5.74" fill="#cc6c6d"></path><ellipse cx="187.99" cy="56.95" rx="8.65" ry="12.15" transform="translate(-8.1 68.4) rotate(-20.2)" fill="#f9847f"></ellipse><path d="M197,58l-9.3,1.88L186,55.51l8.59-4.7A21.06,21.06,0,0,1,197,58Z" fill="#fff"></path><ellipse cx="186.99" cy="57.64" rx="1.9" ry="2.37" transform="translate(-7.39 80.07) rotate(-23.71)" fill="#f7d600"></ellipse><path d="M207.31,73.25l1.56-27.68a.92.92,0,0,0-.87-1l-2.17-.12a.92.92,0,0,0-1,.87l-1.6,28.35a1.84,1.84,0,0,0,2.94,1.58l0,0A2.67,2.67,0,0,0,207.31,73.25Z" fill="#3bd2e2"></path><path d="M325.7,161.82s-2.11,25,11.22,29.4,20-8.36,19.48-30.38" fill="#68e1fd"></path><ellipse cx="341.05" cy="161.33" rx="15.36" ry="8.88" transform="translate(-4.96 10.93) rotate(-1.82)" fill="#f2696a"></ellipse><path d="M344.36,141.47s-6.3-8.51-3.87-14.61c0,0,2-3.93,5.1-4.65,0,0,0,8.26,3,7.11s-.27-8.63-.27-8.63,3.09-4.47,6.62-4.45.25,7.71,2.66,6.38-.09-7.71,2.65-8.56a58.06,58.06,0,0,1,7.64-1.47s2.85,7.44.27,8.6-6.4,1.65-4.51,3.25,7.06-.47,7.06-.47.46,4.22-1.26,6.11-12.29-1.83-10.33,1.75,8.81,1.54,8.81,1.54-3.37,5.16-7.44,7.6S344.36,141.47,344.36,141.47Z" fill="#8ccc00"></path><path d="M346.46,163.2s-4.49-4.16-3.75-7.88c0,0,.74-2.45,2.4-3.18,0,0,.86,4.69,2.46,3.72s-1.08-4.87-1.08-4.87,1.27-2.87,3.29-3.23,1,4.35,2.19,3.34-.87-4.37.59-5.14a33.54,33.54,0,0,1,4.18-1.65s2.41,3.92,1.07,4.85-3.46,1.62-2.21,2.32,4-1,4-1,.71,2.35-.06,3.6-7.17.27-5.68,2.1,5.17-.07,5.17-.07a16.35,16.35,0,0,1-3.42,5.11C353.51,163,346.46,163.2,346.46,163.2Z" fill="#8ccc00"></path><path d="M330.16,154.42s-10.56.75-14.4-4.59c0,0-2.22-3.84-1.18-6.8,0,0,6.94,4.47,7.6,1.29s-7.43-4.41-7.43-4.41-2.11-5-.19-8,6.64,3.94,6.81,1.18-6.55-4.06-5.8-6.84a58.06,58.06,0,0,1,2.86-7.23s7.81,1.59,7.4,4.39-2.05,6.29.32,5.55,3.39-6.21,3.39-6.21,3.81,1.88,4.48,4.34-8.15,9.38-4.08,9.65,6-6.61,6-6.61,2.54,5.62,2.41,10.36S330.16,154.42,330.16,154.42Z" fill="#8ccc00"></path><path d="M365.69,116q-1.64,1.48-3.29,3c.08-1.2.18-2.4.33-3.6.08-.63-.89-.87-1-.24q-.3,2.4-.42,4.82c-2.88,2.69-5.74,5.51-8.38,8.48a35.69,35.69,0,0,1-.38-6.1c0-.64-1-.61-1,0a36.71,36.71,0,0,0,.52,7,69.17,69.17,0,0,0-4.73,6.09,19.81,19.81,0,0,1-3.68-7.87c-.14-.63-1.09-.33-1,.3a20.49,20.49,0,0,0,4,8.34.51.51,0,0,0,.1.09c-4.2,6.37-7,13.45-7,21.56,0,.64,1,.61,1,0,0-7.8,2.68-14.65,6.71-20.81a38.56,38.56,0,0,0,12.42.81c.64-.06.61-1.06,0-1a37.78,37.78,0,0,1-11.8-.71,72.53,72.53,0,0,1,6.7-8.31l.09,0c2.34.13,4.68.27,7,.28a8.55,8.55,0,0,0,4.33-.64c.57-.31,0-1.15-.53-.85-1.59.86-3.86.51-5.59.46-1.48,0-3-.12-4.45-.2,3.45-3.64,7.16-7,10.75-10.29C366.9,116.25,366.17,115.57,365.69,116Z" fill="#06577a"></path><path d="M335.34,136.43a.5.5,0,0,0-1-.24,17.71,17.71,0,0,1-6.12,9.42q-1.85-4.66-3.41-9.43a29.87,29.87,0,0,0,5.6-8.46c.26-.59-.62-1.07-.88-.48a29.1,29.1,0,0,1-5.08,7.83c-1.16-3.64-2.2-7.33-3.1-11.05-.15-.63-1.11-.33-1,.3q1.84,7.65,4.42,15.06a23.45,23.45,0,0,1-5.51-1.61c-.59-.25-1.07.62-.48.88a24.53,24.53,0,0,0,6.37,1.81h0c1.16,3.26,2.44,6.47,3.81,9.64a24.18,24.18,0,0,1-8.75-1.64c-.59-.23-1.08.65-.48.88a25.51,25.51,0,0,0,9.65,1.76q2.6,5.93,5.67,11.66c.31.57,1.15,0,.85-.53a156.06,156.06,0,0,1-7.35-15.64h0A18.81,18.81,0,0,0,335.34,136.43Z" fill="#06577a"></path><path d="M353.85,148.78l-2.6,4.7a8.62,8.62,0,0,1-.92-1.41c-.3-.57-1.14,0-.85.53a9.53,9.53,0,0,0,1.21,1.78l0,0-2.82,5.09a2,2,0,0,1-.65-1.18c-.1-.63-1.1-.6-1,0a3.15,3.15,0,0,0,1.16,2l-3.53,6.37a.5.5,0,0,0,.88.48l4.65-8.4a7.47,7.47,0,0,0,2.42-.44c.6-.22.31-1.18-.3-1a6.65,6.65,0,0,1-1.54.34l4.71-8.51A.5.5,0,0,0,353.85,148.78Z" fill="#06577a"></path><path d="M203.88,75a49.86,49.86,0,0,0,6.82.32,50.68,50.68,0,0,0,7.75.82,75.09,75.09,0,0,0,1.39-8.3c-1.37-.26-2.74-.53-4.1-.84q-1.42-.75-2.88-1.4a1.37,1.37,0,0,0-.46-.49,25.45,25.45,0,0,0-7.78-3.91c-1.39-.35-2.43,1.77-1.23,2.6q1.27.88,2.58,1.69-1.92-.38-3.85-.65A1.53,1.53,0,0,0,200.4,66a1.81,1.81,0,0,0,.69,1.94,1.76,1.76,0,0,0-1,1.91,2.53,2.53,0,0,0,1.21,1.52,1.94,1.94,0,0,0-.32,1.73C201.36,74.45,202.66,74.82,203.88,75Z" fill="#ffc4b0"></path><path d="M227.19,51.75c3.14,2.54,7.5,10.64,9.21,16.87s2.79,18.26-4.5,19-14-9.06-14-9.06l2-10.79Z" fill="#ffb3a6"></path><polygon points="219.84 67.81 228.64 68.62 225.38 62.54 226.01 66.63 219.84 67.81" fill="#42210b"></polygon><path d="M218.44,76.1l-.57,2.49s2.2,8.33,11.05,8.82C228.92,87.42,219.51,83.45,218.44,76.1Z" fill="#42210b"></path></g></g></svg>